HIERARCHY
ROOT Hips
{
	OFFSET -14.64140 90.27770 -84.91600
	CHANNELS 6 Xposition Yposition Zposition Zrotation Xrotation Yrotation
	JOINT Spine
	{
		OFFSET 0.00000 13.20850 -1.60436
		CHANNELS 3 Zrotation Xrotation Yrotation
		JOINT Spine1
		{
			OFFSET 0.00000 8.61716 0.00000
			CHANNELS 3 Zrotation Xrotation Yrotation
			JOINT Spine2
			{
				OFFSET 0.00000 8.61717 0.00000
				CHANNELS 3 Zrotation Xrotation Yrotation
				JOINT Spine3
				{
					OFFSET 0.00000 8.61717 0.00000
					CHANNELS 3 Zrotation Xrotation Yrotation
					JOINT Neck
					{
						OFFSET 0.00000 11.07920 1.10792
						CHANNELS 3 Zrotation Xrotation Yrotation
						JOINT Neck1
						{
							OFFSET 0.00000 7.08032 0.00000
							CHANNELS 3 Zrotation Xrotation Yrotation
							JOINT Head
							{
								OFFSET 0.00000 7.08031 0.00000
								CHANNELS 3 Zrotation Xrotation Yrotation
								End site
								{
									OFFSET 0.00000 0.00000 0.00000
								}
							}
						}
					}
					JOINT RightShoulder
					{
						OFFSET -0.01000 7.91373 5.19711
						CHANNELS 3 Zrotation Xrotation Yrotation
						JOINT RightArm
						{
							OFFSET -18.41580 0.00000 0.00000
							CHANNELS 3 Zrotation Xrotation Yrotation
							JOINT RightForeArm
							{
								OFFSET -29.11090 0.00000 0.00000
								CHANNELS 3 Zrotation Xrotation Yrotation
								JOINT RightHand
								{
									OFFSET -24.65040 0.00000 0.00000
									CHANNELS 3 Zrotation Xrotation Yrotation
									JOINT RightHandThumb1
									{
										OFFSET -5.35114 -0.85590 3.97906
										CHANNELS 3 Zrotation Xrotation Yrotation
										JOINT RightHandThumb2
										{
											OFFSET -4.52789 0.00000 0.00000
											CHANNELS 3 Zrotation Xrotation Yrotation
											JOINT RightHandThumb3
											{
												OFFSET -2.46976 0.00000 0.00000
												CHANNELS 3 Zrotation Xrotation Yrotation
												End site
												{
													OFFSET 0.00000 0.00000 0.00000
												}
											}
										}
									}
									JOINT RightHandIndex1
									{
										OFFSET -14.26970 0.00000 2.88139
										CHANNELS 3 Zrotation Xrotation Yrotation
										JOINT RightHandIndex2
										{
											OFFSET -5.48836 0.00000 0.00000
											CHANNELS 3 Zrotation Xrotation Yrotation
											JOINT RightHandIndex3
											{
												OFFSET -3.01859 0.00000 0.00000
												CHANNELS 3 Zrotation Xrotation Yrotation
												End site
												{
													OFFSET 0.00000 0.00000 0.00000
												}
											}
										}
									}
									JOINT RightHandMiddle1
									{
										OFFSET -14.26970 0.00000 -0.09147
										CHANNELS 3 Zrotation Xrotation Yrotation
										JOINT RightHandMiddle2
										{
											OFFSET -6.17441 0.00000 0.00000
											CHANNELS 3 Zrotation Xrotation Yrotation
											JOINT RightHandMiddle3
											{
												OFFSET -3.56743 0.00000 0.00000
												CHANNELS 3 Zrotation Xrotation Yrotation
												End site
												{
													OFFSET 0.00000 0.00000 0.00000
												}
											}
										}
									}
									JOINT RightHandRing1
									{
										OFFSET -12.69180 0.00000 -3.06433
										CHANNELS 3 Zrotation Xrotation Yrotation
										JOINT RightHandRing2
										{
											OFFSET -5.62556 0.00000 0.00000
											CHANNELS 3 Zrotation Xrotation Yrotation
											JOINT RightHandRing3
											{
												OFFSET -3.56744 0.00000 0.00000
												CHANNELS 3 Zrotation Xrotation Yrotation
												End site
												{
													OFFSET 0.00000 0.00000 0.00000
												}
											}
										}
									}
									JOINT RightHandPinky1
									{
										OFFSET -11.11390 0.00000 -6.03719
										CHANNELS 3 Zrotation Xrotation Yrotation
										JOINT RightHandPinky2
										{
											OFFSET -4.52789 0.00000 0.00000
											CHANNELS 3 Zrotation Xrotation Yrotation
											JOINT RightHandPinky3
											{
												OFFSET -2.46976 0.00000 0.00000
												CHANNELS 3 Zrotation Xrotation Yrotation
												End site
												{
													OFFSET 0.00000 0.00000 0.00000
												}
											}
										}
									}
								}
							}
						}
					}
					JOINT LeftShoulder
					{
						OFFSET 0.01000 7.91373 5.19711
						CHANNELS 3 Zrotation Xrotation Yrotation
						JOINT LeftArm
						{
							OFFSET 18.41580 0.00000 0.00000
							CHANNELS 3 Zrotation Xrotation Yrotation
							JOINT LeftForeArm
							{
								OFFSET 29.11090 0.00000 0.00000
								CHANNELS 3 Zrotation Xrotation Yrotation
								JOINT LeftHand
								{
									OFFSET 24.65040 0.00000 0.00000
									CHANNELS 3 Zrotation Xrotation Yrotation
									JOINT LeftHandThumb1
									{
										OFFSET 5.35114 -0.85590 3.97906
										CHANNELS 3 Zrotation Xrotation Yrotation
										JOINT LeftHandThumb2
										{
											OFFSET 4.52789 0.00000 0.00000
											CHANNELS 3 Zrotation Xrotation Yrotation
											JOINT LeftHandThumb3
											{
												OFFSET 2.46977 0.00000 0.00000
												CHANNELS 3 Zrotation Xrotation Yrotation
												End site
												{
													OFFSET 0.00000 0.00000 0.00000
												}
											}
										}
									}
									JOINT LeftHandIndex1
									{
										OFFSET 14.26970 0.00000 2.88139
										CHANNELS 3 Zrotation Xrotation Yrotation
										JOINT LeftHandIndex2
										{
											OFFSET 5.48836 0.00000 0.00000
											CHANNELS 3 Zrotation Xrotation Yrotation
											JOINT LeftHandIndex3
											{
												OFFSET 3.01859 0.00000 0.00000
												CHANNELS 3 Zrotation Xrotation Yrotation
												End site
												{
													OFFSET 0.00000 0.00000 0.00000
												}
											}
										}
									}
									JOINT LeftHandMiddle1
									{
										OFFSET 14.26970 0.00000 -0.09147
										CHANNELS 3 Zrotation Xrotation Yrotation
										JOINT LeftHandMiddle2
										{
											OFFSET 6.17440 0.00000 0.00000
											CHANNELS 3 Zrotation Xrotation Yrotation
											JOINT LeftHandMiddle3
											{
												OFFSET 3.56744 0.00000 0.00000
												CHANNELS 3 Zrotation Xrotation Yrotation
												End site
												{
													OFFSET 0.00000 0.00000 0.00000
												}
											}
										}
									}
									JOINT LeftHandRing1
									{
										OFFSET 12.69180 0.00000 -3.06433
										CHANNELS 3 Zrotation Xrotation Yrotation
										JOINT LeftHandRing2
										{
											OFFSET 5.62556 0.00000 0.00000
											CHANNELS 3 Zrotation Xrotation Yrotation
											JOINT LeftHandRing3
											{
												OFFSET 3.56744 0.00000 0.00000
												CHANNELS 3 Zrotation Xrotation Yrotation
												End site
												{
													OFFSET 0.00000 0.00000 0.00000
												}
											}
										}
									}
									JOINT LeftHandPinky1
									{
										OFFSET 11.11390 0.00000 -6.03719
										CHANNELS 3 Zrotation Xrotation Yrotation
										JOINT LeftHandPinky2
										{
											OFFSET 4.52789 0.00000 0.00000
											CHANNELS 3 Zrotation Xrotation Yrotation
											JOINT LeftHandPinky3
											{
												OFFSET 2.46976 0.00000 0.00000
												CHANNELS 3 Zrotation Xrotation Yrotation
												End site
												{
													OFFSET 0.00000 0.00000 0.00000
												}
											}
										}
									}
								}
							}
						}
					}
					JOINT pCube4
					{
						OFFSET 0.00000 10.91090 1.10792
						CHANNELS 3 Zrotation Xrotation Yrotation
						End site
						{
							OFFSET 0.00000 0.00000 0.00000
						}
					}
				}
			}
		}
	}
	JOINT RightUpLeg
	{
		OFFSET -9.98441 0.00000 0.00000
		CHANNELS 3 Zrotation Xrotation Yrotation
		JOINT RightLeg
		{
			OFFSET 0.00000 -42.11790 0.00000
			CHANNELS 3 Zrotation Xrotation Yrotation
			JOINT RightFoot
			{
				OFFSET 0.00000 -45.00020 -0.00001
				CHANNELS 3 Zrotation Xrotation Yrotation
				JOINT RightForeFoot
				{
					OFFSET 0.00000 -3.74820 0.00000
					CHANNELS 3 Zrotation Xrotation Yrotation
					JOINT RightToeBase
					{
						OFFSET 0.00000 0.06325 14.43120
						CHANNELS 3 Zrotation Xrotation Yrotation
						End site
						{
							OFFSET 0.00000 0.00000 0.00000
						}
					}
				}
			}
		}
	}
	JOINT LeftUpLeg
	{
		OFFSET 9.98441 0.00000 0.00000
		CHANNELS 3 Zrotation Xrotation Yrotation
		JOINT LeftLeg
		{
			OFFSET 0.00000 -42.11800 0.00000
			CHANNELS 3 Zrotation Xrotation Yrotation
			JOINT LeftFoot
			{
				OFFSET 0.00000 -45.00070 0.00000
				CHANNELS 3 Zrotation Xrotation Yrotation
				JOINT LeftForeFoot
				{
					OFFSET 0.00000 -3.74824 0.00000
					CHANNELS 3 Zrotation Xrotation Yrotation
					JOINT LeftToeBase
					{
						OFFSET 0.00000 0.06325 14.43110
						CHANNELS 3 Zrotation Xrotation Yrotation
						End site
						{
							OFFSET 0.00000 0.00000 0.00000
						}
					}
				}
			}
		}
	}
}
MOTION
Frames: 4
Frame Time: 0.050000
0.032619737656084606 0.009270510409308229 0.004995177770855286 0.029492997695530234 -0.002777422495442444 0.0017362274495193405 2.3328380742410793 1.1111531071003165 -1.8707694591336756 -0.764137734867463 3.335483924800839 0.4067390462094081 -0.9015495125306782 -1.6186206956118927 0.5343016064608956 -0.6896901049377443 -0.30812327378918086 -0.4042141537037113 0.2900660532327971 13.088405230381541 -1.3618011027713006 0.5647442329540571 0.5946419909061997 -3.5971055622842156 1.0394331158597991 -14.732296267239995 -0.31293536652234266 -9.65825155297715 3.4684175471099734 -15.426804569697502 75.70532908225566 4.287236613643486 22.06731952909247 41.799661883038105 9.884393358976476 94.29043713860328 18.085092057768318 -0.4178490186786744 -7.545181328098323 4.527549188244424 -0.14801283393964765 -1.5667687898013367 0.03389192899798706 -0.03735592522589725 -56.23981269242945 -0.017752313944399096 0.021973865084194275 -56.23936219781623 -38.78818381784312 -0.04883528972035622 -0.004733472748749185 -0.004446198376409905 -0.016152571493349734 -0.0263533674172604 -0.047113632346040865 0.025137510404072805 0.019764231292331725 -36.72326180179145 0.013451856636404406 -0.03129953963374977 0.009205567070840985 -0.009800168324021042 0.021167871317172994 0.0322513620371351 -0.018085520056877427 0.0327007678597334 -19.73221409868707 0.042191749476236856 0.008031877195288509 -0.014560228814863296 0.018497391079657522 -0.005869508271122369 -0.03579419298900333 0.0015795551964644654 -0.015727718336451937 24.081866898284943 -0.0017276452001640363 0.02765195412520465 28.893081276535312 0.02692607732698325 -0.004657561172607501 28.86800676047808 -0.026586971644450775 0.01893805541031235 9.549886118496095 2.358283443376048 13.18350687449449 -73.79028667323695 22.94928392999694 -19.735319991831826 -55.6335393889471 13.140967192673195 -95.95668813312322 -18.66669558496131 -8.355746964673052 6.4728391541265555 -0.5179048617040831 0.10977698794279334 -8.163478805433682 -0.04022205545649388 0.01119249966387152 44.55825392429484 0.00411013996001218 0.01983831469170326 44.521634804206656 12.421290806086134 -0.030881034412342655 -0.03262618525339085 -0.03227811838653256 0.04646752852089269 0.020656935012569603 -0.029292086950704056 0.02267314880535318 -0.015782454932744133 11.12108182351887 0.0064060765839660284 0.010091915408158845 0.030757307215110313 0.029470973124298028 0.025829388395870387 -0.0057312125051832636 -0.0010033733101645582 -0.015981142673095857 4.796393888195795 -0.016151373406192722 0.044139542302262955 -0.004688379647972542 -0.02092766370994904 -0.045558912942918695 -0.04517407982043589 0.014116977087654773 0.032086290848332304 -5.6158924403123995 0.035009825942908766 -0.004012436291966408 -6.695409499088355 0.008414530857229175 0.03169632792302111 -6.726262797700133 -0.027699173313643372 0.020630605323872096 0.02622138206391463 -0.0018267723904081701 0.038419293790128525 8.082875870286937 3.5082531586116747 -19.247703929905416 -0.017845630175807172 10.378602440857232 0.022340691009721067 -5.590869935580716 -15.669093770330287 3.204499118092053 0.007894197163533238 -0.005084622540142638 0.027480770179209597 -0.017494274015452397 4.647866897068888 -0.027158719034939313 12.42559454132583 -8.208031094479281 6.870806993374129 0.02344466868932866 46.40629503797577 -0.0019145560715157588 -4.356903743045335 -14.740189889237643 -3.867703661809397 0.008141748802622266 -0.02417258862154556 -0.02794385291370057 0.002000432333239329 -10.772459108583996 -0.020005872111637818 
0.0440300116141061 0.011706130244075326 -0.017132543379240816 -0.015469265617907669 -0.0014867855409200319 -0.0314425917046603 1.9908256770550041 1.00396748546795 -1.7788775404154775 -0.7733319566120932 3.373165316651883 0.4069161011112276 -0.9186272128020909 -1.6942257714353928 0.7642726094357775 -0.7772840797853461 -0.32224542346692125 -0.4112077357358831 0.4157599834163739 13.26415890399994 -1.3294002828783902 0.5643266927397547 0.6370680942847037 -3.8139402263191258 1.1280583850860952 -14.676972432543051 -0.3198388131186771 -9.91067083665891 3.529875692656468 -15.248003490724606 75.27100635277536 1.090178496702251 24.183173217721805 41.78576025189761 9.572089192242512 95.30646455431628 17.526640442107922 -0.3965503109588134 -7.275569670133319 4.531138180081145 -0.14302902979323295 -1.5873612836410367 -0.018512527481342595 0.022944374579447382 -56.19206890630725 -0.009455413871349358 -0.024097119437056835 -56.2263903029988 -38.78772618805779 -0.026596959454922527 0.01234951302951081 -0.027598557608224043 -0.023814953050164397 0.01308727295091883 0.017491088639836696 -0.005668465613565104 0.03601482169522643 -36.72450388576212 0.03951531774024592 0.029473290738071114 0.01092523843042134 0.01967530901543163 -0.016833250523824072 0.006513717716005322 0.026121720824707303 -0.027105728223585007 -19.735035462317338 0.020379657856942804 0.020430136991775927 0.002848985422110922 0.01675432017966351 -0.0006699127696929189 0.017668895333712686 -0.04753002622888901 -0.012545887977189881 24.038290675407826 -0.03805340116948893 -0.03514512358528338 28.863390651090736 -0.014678887825253317 0.006040428698209668 28.904372155813267 -0.041917881819498355 -0.03904009724716639 9.273743870997349 2.243193705255474 13.204550998616622 -73.51439469897966 23.468544632354686 -19.019572534549408 -54.060737734061725 12.71002463637699 -95.88882214187268 -18.012557822906576 -7.797450606588712 5.923878762710872 -0.4915884625246194 0.02213161014101564 -8.109711887613908 -0.012305755668002408 -0.004580474192071559 44.54278548818777 -0.0024256131675021706 0.04192629020777274 44.56228633694213 12.432166844324295 0.021569241059143384 -0.023668752917928474 -0.026721120581679428 -0.03636220085241107 -0.04372214440391263 -0.01286100138224257 -0.002175471386145073 -0.019168558406801976 11.113229882843472 -0.0017865443885236392 -0.03726787451901057 -0.03597177765987702 0.013740877799436696 -0.010233561531420512 0.04582945564723903 0.03675004587293582 0.01589255584089639 4.763183002422443 0.019853910785966454 -0.00251291112261026 -0.011692524741947668 0.023177102772617867 0.017224656851695098 0.0449281738010039 -0.011387095661732575 -0.03334501464915615 -5.558867242372461 -0.010763359387043096 0.01909937860236309 -6.760732038733918 -0.03691001817323835 0.027239248219037736 -6.703847966853126 -0.0013614604562252554 -0.03454695353696854 0.005016664576152446 0.00038292389263785493 -0.02209596473611836 8.01510034477049 3.495685181698389 -19.261268466884225 0.029964819733065765 10.406970602089876 0.0005827543869710988 -5.6172860588564975 -15.644006654682848 3.2368836769479996 -0.028226757281611517 0.01058729047522534 -0.032933034463086965 0.021357731243431488 4.7462846744953815 -0.02322786722797399 12.47335516879714 -8.261063025750579 6.855561720754926 0.032971107105403887 46.378979909799085 0.05078042567854483 -4.32603787383569 -14.721597518201833 -3.854651126734071 0.01815084828714289 0.002011771196873578 0.008101685776572795 0.0043648063698884295 -10.720602999536949 -0.029775395546414642 
0.007161531878482007 -0.03819354296497246 0.03476052931143603 -0.03437666453039272 0.04599967630611823 0.019056138350985744 1.7623604359440723 0.9193518908909784 -1.677360201717487 -0.8236786844421045 3.351336022655926 0.39988586839156004 -1.0230267668359931 -1.69496346782046 0.8613299281271382 -0.8142787861767442 -0.3374400297924597 -0.34594213725831685 0.48662246837449746 13.419759811428916 -1.3569004878226272 0.6169516679634566 0.6838917239156422 -4.042861212832687 1.1512273038179939 -14.603934184669056 -0.35641206164878547 -10.149694823808694 3.605771536489188 -15.19460129384662 74.97708148457967 -1.425596074297248 26.57293473034654 40.80925439072488 9.306717229045796 96.42421231715255 16.880259829090328 -0.4337682962781734 -6.8928676107581 4.56231364439755 -0.09554226288783169 -1.6002837234800298 0.010007956612270514 0.016840835760271438 -56.205017698187696 0.013482069991276302 -0.02968706061597834 -56.23457853049122 -38.7361691015827 -0.0271934265702047 -0.0030214566898300846 -0.00437797382564754 -0.010417230128753759 -0.027337998001068342 0.006363504190636123 -0.04842594696718038 0.0030004510563924683 -36.72343043401772 -0.04802113981180731 -0.03563475097216166 0.004299853178680492 0.03387658436237988 0.025767903433786703 0.01043573039430623 0.026697924850835195 0.049910533112537944 -19.750435413678392 0.04566348303964876 0.012835872228717503 -0.035050111726090745 0.0378568700507878 -0.03231201388593568 -0.011369876621802649 0.03511784856883854 0.014062603245337662 24.037626204694188 -0.035136749321561515 0.006641346125482709 28.83627225092112 0.010360310206653262 -0.027442599598775437 28.840682640346838 0.02163835920642238 0.048152353313280334 9.168270023389145 2.232107537966568 13.180393856360638 -73.20635210081925 24.16118617160295 -18.323301610655562 -51.139249152680314 12.272483782213833 -95.88654449145436 -17.621334584092864 -7.472325782703864 5.47230186436041 -0.481175673904857 0.0799508521613748 -8.160962241707564 -0.016901015539637243 0.02789325909741878 44.59204552744539 -0.018320226458208348 -0.04694655455070166 44.554266402354706 12.487837584735322 -0.013662246799207087 0.029420239150104468 -0.046434435631702145 0.04652384281781712 0.01830453205495587 0.013806946480692863 0.019107969906204076 0.03928031782593339 11.121384019621198 0.041950894309582376 0.02884497930935063 -0.020043676977982608 0.007566804391128404 -0.01347929925363594 0.017547965536551646 -0.016745194095626404 -0.030413208947896227 4.813958539239591 0.017518431371928468 0.01258275825245527 -0.00937606938181231 -0.04193678492316464 0.03503711600117349 -0.00841976166744114 -0.0153372798580409 -0.011014080099813181 -5.635192812843986 0.0372776355426412 0.009411905441451478 -6.71394334483297 -0.007880184101215616 -0.03719449669425364 -6.6879983478953795 0.03937788292566445 -0.03787483382608157 0.010210553626770367 -0.0045347663111798735 0.030922431489910317 8.055267714952818 3.4948670719089256 -19.23861689392425 -0.013234083170511243 10.404844950777356 0.04632322408588205 -5.578344287381044 -15.647585843896149 3.1503995157892386 -0.004770239829512877 0.021261012004275447 -0.010219159926686414 -0.01362198569993485 4.656050235261337 0.035578752950186705 12.468450953641868 -8.248428854373318 6.861488453422693 -0.03215790253506954 46.39428482982769 -0.01689867851742629 -4.333601949932499 -14.736630035586673 -3.79936458952862 0.04619501949194896 0.0491717174407594 -0.008646088592557697 -0.03412576241085892 -10.704898719799997 0.031151897563016284 
0.035181183627795244 0.006353042246513276 -0.026704705807108816 0.03824533208422026 -0.040764742179398995 -0.010218813734196232 1.6731662686638062 0.8617752546270424 -1.6844294965773616 -0.8106447527961084 3.3756879720881487 0.41667926911957975 -1.046003390605611 -1.7158369899696575 1.0415408957938546 -0.9622397933388585 -0.3551538009084897 -0.3227937433724364 0.550280195455798 13.491765392205464 -1.3701023505031686 0.6639539373781466 0.6806767952615458 -3.9877185632826526 1.2358203828676346 -14.534461749510417 -0.37086957234243473 -10.24684640580811 3.6060307133091736 -15.13070895217268 75.14418284468229 -2.7343949324953982 28.413475672914526 40.335008416614755 9.354883994236744 98.03660499483841 16.41704960220071 -0.5356247097125237 -6.79181959571348 4.504636757270373 -0.17321961228099808 -1.611525405748566 -0.003236481393372863 -5.725751715730441e-05 -56.27670816713876 -0.01081514440740196 -0.005135631500845616 -56.26633835388248 -38.81382020702507 0.02297231096252511 0.04945426267365744 0.04578864935406218 -0.036074806001167 -0.03488745321993256 -0.0368520701957696 -0.022354428066166065 0.011768667734743471 -36.667854799037464 -0.01878271887876211 -0.030729848934740647 -0.0019326398226021137 -0.032897420187890165 0.012986419615681706 0.0245295598719897 -0.03635670040742708 0.04102427835674985 -19.779546393939132 -0.0010953016110412013 -0.027050740713413977 0.026764700743404268 -0.006622024650869905 -0.032983447530867856 0.028255811808295596 0.03887408507976909 -0.04187870319509069 24.048984544780975 0.04974028721082038 0.010722297788212763 28.820322412523378 0.030224978327799225 0.02433002977428982 28.838648075223734 0.010678534608341141 0.015707339688164644 9.058857874852626 2.2176045956237975 13.159828254446087 -73.08214347116072 24.69804484748078 -18.262277061655276 -49.40411941261281 12.30240993735025 -96.99243697435557 -17.474001782500803 -7.4336450913198275 5.3243704422041525 -0.5036225620929298 0.08173333280536921 -8.12285539621886 0.0015178128358120685 0.016298025208551503 44.570090337499174 0.02322086629742539 -0.04091701186747222 44.57624663391828 12.46399815558555 0.031193838406238936 -0.010569445919050865 0.024330571306435657 -0.010702865236982502 0.04104379603172409 -0.025875976850036078 0.005882706015288514 -0.00018759591604472638 11.142279915764718 0.010368285349281482 0.005573527484833735 0.0019331574712978 0.031151309174082625 0.03433589806732871 -0.00025401796962443623 0.03482532665715438 -0.009933565226995652 4.740213845858 0.02339932174372223 -0.04021007472966638 -0.0075004872910798435 0.009074118565188546 0.03864469051088359 -0.048616019021331225 -0.0096832909109462 0.00609367226568183 -5.620533959861672 0.04014658652601371 -0.0229399999521141 -6.69674699919299 -0.007686787313660859 0.0025975987544581513 -6.679757557570328 -0.005918765359715473 -0.04494301104281376 -0.014393542843818184 0.015871448138160403 0.02804502852955077 8.064401973587513 3.499122135274585 -19.233879161083106 0.0418406832155075 10.346495726783152 -0.03417631428991667 -5.622143417745116 -15.645596209864019 3.226797389278293 -0.03340367616370016 -0.047957622497579705 0.006534100149389994 -0.0138049283498309 4.690185074598127 0.03190945427168732 12.47438019974956 -8.237576351921616 6.877049437668422 -0.01706547573062101 46.343595950590164 -0.010560207430552264 -4.320761215236084 -14.750140372999052 -3.868142803018008 0.032147780760289006 -0.023361793473290853 0.01694467775488342 -0.029080330080755324 -10.751672936259729 -0.017415787422714133 
